<?xml version="1.0" encoding="UTF-8"?>
<svg version="1.1" xmlns="http://www.w3.org/2000/svg" width="512" height="512">
<path d="M0 0 C1.26651052 0.01619102 2.53302103 0.03238203 3.83791065 0.04906368 C7.33811523 0.09395427 10.83819112 0.14563961 14.33828378 0.19846058 C18.10801163 0.25414679 21.87782333 0.30347442 25.64762878 0.35357666 C33.01051697 0.45241897 40.37331241 0.55702303 47.73609263 0.66357458 C56.30850756 0.78740736 64.88099828 0.90552546 73.45349872 1.02326477 C87.69302439 1.21895129 101.93249335 1.41843299 116.17193043 1.62045395 C135.40283138 1.89319538 154.63386923 2.1541943 173.86501372 2.40913564 C184.44747652 2.5494924 195.02990717 2.69223805 205.6123333 2.83533001 C207.18304313 2.8565618 208.75375299 2.87779093 210.32446289 2.89901733 C211.09611727 2.90944677 211.86777165 2.9198762 212.66280949 2.93062168 C218.03308781 3.00309068 223.40338136 3.07435202 228.77368164 3.14517212 C235.33816253 3.23179226 241.90260884 3.3206672 248.46702367 3.41216028 C251.78885893 3.45840755 255.11069729 3.50346564 258.43257713 3.54645538 C265.55264219 3.63890695 272.67181977 3.75176899 279.79107285 3.89387894 C283.01024957 3.95385538 286.22935645 3.99976382 289.44880241 4.04217988 C292.81428535 4.0922782 296.17910731 4.16865151 299.54418945 4.24072266 C301.38558014 4.259232 301.38558014 4.259232 303.26417065 4.27811527 C314.24489118 4.55871259 324.41944412 7.02169183 332.4296875 14.96166992 C338.89157148 23.0096527 342.56624609 31.37374377 342.54321289 41.76171875 C342.54313736 42.90252396 342.54306183 44.04332916 342.54298401 45.21870422 C342.53782272 46.43970322 342.53266144 47.66070221 342.52734375 48.91870117 C342.52522133 50.80585091 342.52522133 50.80585091 342.52305603 52.73112488 C342.51841323 56.06345521 342.50943978 59.39571624 342.49835205 62.72802734 C342.48809253 66.13337609 342.48354871 69.53873202 342.47851562 72.9440918 C342.4674958 79.6166369 342.4507645 86.28914941 342.4296875 92.96166992 C343.03151855 93.01500488 343.63334961 93.06833984 344.25341797 93.12329102 C345.05150879 93.20144043 345.84959961 93.27958984 346.671875 93.36010742 C347.45933105 93.43406738 348.24678711 93.50802734 349.05810547 93.58422852 C356.35558081 94.74563441 361.9317087 99.29923975 366.4296875 104.96166992 C370.2254445 111.21891782 371.61718342 116.60837281 371.597229 123.92506409 C371.59535717 124.72390379 371.59348534 125.52274348 371.59155679 126.34579045 C371.5034339 135.46343749 370.65195338 144.48070314 369.74902344 153.54736328 C369.5676249 155.43355719 369.38694699 157.31982051 369.20692444 159.20614624 C368.72118973 164.27054035 368.22445943 169.33379517 367.72476101 174.39682841 C367.3067307 178.64130983 366.89382198 182.88628385 366.48074269 187.13124949 C365.50593093 197.14625679 364.52170356 207.16030831 363.53173828 217.17382812 C362.5133454 227.47683238 361.51214981 237.78140862 360.51910758 248.08688444 C359.66237356 256.97075592 358.7944229 265.85348433 357.91766763 274.73540217 C357.39566616 280.02499321 356.87796248 285.31491371 356.37133026 290.6060009 C355.8950218 295.57576365 355.40467327 300.54394797 354.90374565 305.51128769 C354.72300336 307.32676489 354.54712287 309.14273418 354.37664223 310.95920372 C353.12525821 324.24733585 351.42302721 335.49941806 342.4296875 345.96166992 C344.16605469 346.12602539 344.16605469 346.12602539 345.9375 346.29370117 C347.47662613 346.45324473 349.01568529 346.61343532 350.5546875 346.77416992 C351.69550781 346.87955078 351.69550781 346.87955078 352.859375 346.98706055 C358.61514863 347.60729477 363.48197703 348.63698323 367.3671875 353.27416992 C368.74858135 356.76828379 368.59540042 358.39167412 367.4296875 361.96166992 C364.49404675 366.2020399 362.30424402 368.38727217 357.4296875 369.96166992 C355.0015564 370.27159119 355.0015564 370.27159119 352.43505859 370.35595703 C351.46565338 370.39177383 350.49624817 370.42759064 349.49746704 370.4644928 C348.45158417 370.49320969 347.40570129 370.52192657 346.328125 370.55151367 C345.2175473 370.58832748 344.1069696 370.6251413 342.96273804 370.66307068 C339.45195273 370.77455616 335.94105527 370.87050622 332.4296875 370.96166992 C331.37559692 370.99029114 330.32150635 371.01891235 329.23547363 371.04840088 C321.1759895 371.25996036 313.11597962 371.40218807 305.0546875 371.52416992 C304.38581638 371.53451012 303.71694527 371.54485031 303.02780533 371.55550385 C270.22446984 372.05798552 237.41721353 372.07166539 204.61076307 372.08378333 C200.33440003 372.08540076 196.05804098 372.08831436 191.78167969 372.09249437 C141.46169049 372.14111237 91.1698115 371.63903751 40.88208008 369.71435547 C37.47990443 369.58419395 34.07759502 369.45944159 30.67504883 369.33935547 C-38.44901057 366.89953434 -38.44901057 366.89953434 -51.0078125 353.77416992 C-60.93949873 340.69411054 -60.13797507 320.69066896 -61.41796875 305.02026367 C-61.59197156 302.93477974 -61.76646399 300.84933661 -61.94140625 298.76393127 C-62.31486103 294.30407599 -62.68585377 289.84402637 -63.05471802 285.38378906 C-64.04005926 273.4701569 -65.0374349 261.55753665 -66.0390625 249.64526367 C-66.14164934 248.42375988 -66.24423618 247.20225609 -66.34993172 245.94373703 C-67.87387081 227.82868557 -69.48598584 209.72321265 -71.1640625 191.62182617 C-71.37472912 189.33940034 -71.58529608 187.05696531 -71.79576111 184.77452087 C-73.00271424 171.69393327 -73.00271424 171.69393327 -74.23733521 158.61593628 C-80.97434379 88.03950912 -80.97434379 88.03950912 -67.5703125 66.96166992 C-67.0959375 66.16116211 -66.6215625 65.3606543 -66.1328125 64.53588867 C-62.08626832 57.99324251 -56.82081602 51.97543343 -49.5703125 48.96166992 C-48.5803125 48.96166992 -47.5903125 48.96166992 -46.5703125 48.96166992 C-46.61671875 47.80151367 -46.663125 46.64135742 -46.7109375 45.44604492 C-47.06803289 32.79020412 -46.14649983 22.07530547 -37.62890625 12.00073242 C-26.42379024 0.90192681 -15.01193271 -0.24350628 0 0 Z M-28.06640625 20.22338867 C-33.80599889 26.85746328 -34.72000075 34.29222191 -34.6328125 42.83666992 C-34.62378906 43.9890918 -34.61476562 45.14151367 -34.60546875 46.32885742 C-34.59386719 47.19768555 -34.58226562 48.06651367 -34.5703125 48.96166992 C-33.60639682 48.96313648 -32.64248114 48.96460304 -31.64935589 48.96611404 C-8.17035932 49.00274626 15.30849502 49.0622447 38.78737354 49.14557266 C50.14169863 49.18534318 61.49595461 49.21774581 72.8503418 49.23266602 C82.74946901 49.24569279 92.64844403 49.27268376 102.54748553 49.31628299 C107.78657768 49.33887459 113.02548228 49.35458197 118.26462746 49.35355377 C123.20180219 49.35280581 128.13856268 49.37081144 133.07563019 49.40283775 C134.88189236 49.41131545 136.68820111 49.41310124 138.49447441 49.40747261 C154.77106998 49.3635311 168.0999858 52.52280497 180.1171875 64.33666992 C184.75649374 69.20347279 189.23761837 74.22477585 193.44140625 79.47338867 C199.90086925 87.23170241 207.34568747 92.26999759 217.4296875 93.96166992 C219.05840142 94.04587561 220.68998887 94.08373855 222.32087708 94.08192444 C223.2785498 94.0832991 224.23622253 94.08467377 225.22291565 94.08609009 C226.26157272 94.08249481 227.3002298 94.07889954 228.37036133 94.07519531 C229.47324493 94.07534134 230.57612854 94.07548737 231.71243286 94.07563782 C235.35388157 94.07494176 238.99527899 94.06716365 242.63671875 94.05932617 C245.16306022 94.0574609 247.68940206 94.05603751 250.21574402 94.05503845 C256.18317826 94.05161184 262.15059051 94.04373218 268.11801594 94.03368896 C274.91364696 94.02250081 281.70927886 94.01701057 288.50491679 94.01199353 C302.47985052 94.00154883 316.45476801 93.98396624 330.4296875 93.96166992 C330.50595691 86.13295759 330.55837968 78.30434165 330.59448242 70.4753418 C330.60783917 67.81370569 330.62998564 65.15255707 330.65600586 62.4909668 C330.69252865 58.6582224 330.70944642 54.82580702 330.72265625 50.99291992 C330.73814011 49.80927856 330.75362396 48.62563721 330.76957703 47.40612793 C330.77125653 39.10058063 329.96588138 32.18311478 324.2421875 25.71166992 C323.71238281 25.08776367 323.18257813 24.46385742 322.63671875 23.82104492 C315.04420237 17.42451785 307.82704244 17.33224466 298.24794006 17.24171448 C296.86377126 17.21504913 295.47963408 17.18669421 294.09553248 17.15674263 C290.55187091 17.0843826 287.00826852 17.03407544 283.4641625 16.98952523 C280.35989698 16.94702273 277.25610863 16.88361987 274.15218925 16.82114983 C266.88099915 16.68059515 259.6095097 16.57937457 252.33764648 16.48095703 C249.58734353 16.44194925 246.83705296 16.40209666 244.08676147 16.36228943 C237.48426393 16.26722126 230.88172914 16.1750588 224.27917569 16.08396547 C216.56156583 15.97736627 208.84400054 15.86768825 201.12643529 15.75791509 C187.35230663 15.56209106 173.57814258 15.36888292 159.80395508 15.17724609 C146.48231425 14.99190233 133.1606996 14.8048066 119.83911133 14.61572266 C119.01582564 14.6040374 118.19253996 14.59235214 117.34430622 14.58031278 C116.52233885 14.56864572 115.70037149 14.55697866 114.85349602 14.54495806 C113.19796432 14.52145937 111.54243261 14.49796117 109.8869009 14.47446346 C108.66178732 14.45707422 108.66178732 14.45707422 107.41192397 14.43933367 C94.63930351 14.25810563 81.86666178 14.07838416 69.09401743 13.89884896 C64.48942106 13.83411087 59.88482761 13.76917003 55.28023618 13.70408242 C47.98686505 13.6009989 40.69348524 13.49857855 33.40008634 13.39747756 C30.07466676 13.35137035 26.74925411 13.3048666 23.42384911 13.25771332 C16.66557824 13.16200157 9.90730839 13.07076946 3.14880252 12.993222 C1.43740993 12.97336333 -0.27396816 12.95216544 -1.98531985 12.92904973 C-3.97097446 12.90320473 -5.95673493 12.88584647 -7.94248962 12.86940002 C-8.94192061 12.85951837 -9.9413516 12.84963671 -10.97106838 12.8394556 C-17.76200815 13.15876 -23.12611306 15.60404261 -28.06640625 20.22338867 Z M-52.9453125 66.46166992 C-60.50068054 78.08531307 -55.86165008 95.78011386 -54.67431641 108.95874023 C-54.47019407 111.27110694 -54.26655839 113.58351664 -54.06336975 115.89596558 C-53.5128297 122.14401886 -52.95508058 128.39140874 -52.39566469 134.63867283 C-51.92862255 139.86241789 -51.46527594 145.08648799 -51.00196111 150.31056476 C-49.84669506 163.33667741 -48.68466371 176.36217613 -47.51928572 189.3873876 C-46.57172261 199.9800158 -45.63031522 210.57317652 -44.69335938 221.16674805 C-43.60293041 233.49551692 -42.50847588 245.82391779 -41.40818155 258.15181041 C-40.82660002 264.66805989 -40.24663233 271.18444205 -39.67088699 277.70121002 C-39.12961756 283.8248869 -38.58251991 289.94801592 -38.03095818 296.07077408 C-37.82976945 298.31472484 -37.6305955 300.55885731 -37.4336071 302.80318069 C-37.16393762 305.87177245 -36.8869109 308.9396159 -36.60806274 312.00738525 C-36.53217851 312.89056592 -36.45629428 313.77374659 -36.37811053 314.68369031 C-35.29157102 327.01774271 -35.29157102 327.01774271 -28.5703125 336.96166992 C-23.6462316 340.44455641 -19.67636694 341.08596279 -13.72529888 341.09309769 C-12.5233635 341.09693883 -11.32142812 341.10077998 -10.08307046 341.10473752 C-8.74765625 341.10395729 -7.41224209 341.1030785 -6.076828 341.10211182 C-4.65943248 341.10469559 -3.24203769 341.10770878 -1.82464391 341.11111522 C2.07494945 341.11918693 5.9745244 341.12097488 9.87412512 341.12171268 C14.07805032 341.12356292 18.28196595 341.13111006 22.48588562 341.1378479 C31.6800391 341.15143254 40.87418823 341.15745603 50.06835008 341.16185856 C55.80798005 341.16462052 61.54760833 341.16885777 67.28723717 341.17336273 C83.17536342 341.18555512 99.06348832 341.19585479 114.95161915 341.19923782 C116.47705443 341.19956717 116.47705443 341.19956717 118.03330658 341.19990318 C119.56240882 341.20023059 119.56240882 341.20023059 121.12240201 341.20056462 C123.18812803 341.20100809 125.25385406 341.20145465 127.31958008 341.2019043 C128.34425338 341.20212573 129.36892668 341.20234716 130.42465069 341.2025753 C147.03219416 341.20652426 163.63969379 341.22398143 180.24722032 341.24726382 C197.29361956 341.27096882 214.3399968 341.28343927 231.3864128 341.28460574 C240.95911306 341.28552293 250.53175616 341.29128643 260.10444069 341.30942535 C268.25486108 341.32481478 276.40520667 341.32995362 284.55563883 341.32168725 C288.71446244 341.31777676 292.87313533 341.31872978 297.03194046 341.3327446 C300.83978896 341.34545947 304.64737313 341.34430739 308.45522114 341.33215389 C310.48389635 341.32926424 312.51257602 341.34115087 314.54121524 341.35357594 C323.44073501 341.30509813 329.80186189 340.40538927 336.4296875 333.96166992 C338.8977674 329.70202551 339.93609002 326.10461661 340.49972534 321.2321167 C340.57691925 320.58536413 340.65411316 319.93861156 340.73364627 319.27226043 C340.97952594 317.17002886 341.20671869 315.06644744 341.4296875 312.96166992 C341.50548365 312.26349057 341.5812798 311.56531122 341.65937281 310.84597492 C342.24234679 305.44536365 342.77814487 300.04045494 343.30908203 294.63452148 C343.48651138 292.84720372 343.6641502 291.05990675 343.84197998 289.27262878 C344.31955959 284.46532623 344.79384639 279.65770458 345.26719904 274.84998417 C345.56379899 271.8391085 345.86113175 268.8283061 346.15871811 265.81752777 C347.19878205 255.29470757 348.23615988 244.77162658 349.27099609 234.24829102 C350.23296513 224.46667798 351.2008719 214.68566469 352.1715194 204.90490937 C353.00765839 196.47685567 353.83964495 188.04839867 354.66843498 179.61961913 C355.16222288 174.59851981 355.657655 169.57759653 356.15729141 164.5570755 C356.62663763 159.83948237 357.09078837 155.12140586 357.55104828 150.40291786 C357.72010838 148.67867952 357.89097457 146.95461709 358.06384659 145.23075676 C360.85317175 128.42006934 360.85317175 128.42006934 356.4296875 112.96166992 C351.25982168 108.01658088 347.03860323 105.71561688 339.88447571 105.7033844 C338.78138565 105.6965564 337.67829559 105.68972839 336.54177856 105.68269348 C335.34116791 105.68524643 334.14055725 105.68779938 332.90356445 105.69042969 C330.95072936 105.68240621 328.99789427 105.67438034 327.04505956 105.66626441 C324.9503047 105.65941763 322.85559348 105.65740978 320.76082802 105.65670967 C316.38476767 105.65476376 312.00886457 105.63668028 307.63285828 105.61595154 C296.76030805 105.56682697 285.88771505 105.53593229 275.01507568 105.51464844 C266.56983237 105.49808857 258.12472401 105.47516174 249.67957085 105.43162769 C245.33775879 105.40995367 240.99620372 105.40178394 236.65434134 105.40402043 C233.30374996 105.40194842 229.95332434 105.38056032 226.6027832 105.36230469 C225.4122937 105.36688187 224.2218042 105.37145905 222.99523926 105.37617493 C209.75469027 105.26183214 198.81094651 101.47105978 189.2421875 92.08666992 C184.75726655 87.3505934 180.51737174 82.39730153 176.2734375 77.44604492 C168.7130441 68.79819768 161.14095178 61.79229033 149.4296875 59.96166992 C146.80861348 59.86371351 144.21403402 59.81383431 141.59318542 59.8144989 C140.81051577 59.81082221 140.02784612 59.80714553 139.22145921 59.80335742 C136.60230399 59.79235588 133.9831885 59.78848279 131.36401367 59.78466797 C129.48465347 59.77840078 127.60529451 59.77175375 125.72593689 59.76475525 C119.5581854 59.7437473 113.39043375 59.73335764 107.22265625 59.72338867 C105.09772542 59.71934025 102.97279472 59.7152233 100.84786415 59.71103859 C90.86646806 59.69199609 80.88507934 59.67776166 70.90366858 59.66942662 C59.38645882 59.65964975 47.86944103 59.63331448 36.35229892 59.59292573 C27.44598801 59.56276534 18.53973216 59.54795791 9.63337117 59.54464561 C4.31560035 59.54229555 -1.00196517 59.53334028 -6.31968117 59.50818443 C-11.32250115 59.48489938 -16.32498067 59.48067229 -21.32784081 59.49094582 C-23.16119901 59.49144114 -24.99457401 59.48512183 -26.82788086 59.47138977 C-29.33661306 59.45365365 -31.84412553 59.46078476 -34.3528595 59.47392273 C-35.07320824 59.46295348 -35.79355698 59.45198424 -36.53573447 59.44068259 C-43.1452076 59.52388454 -48.41844929 61.69655075 -52.9453125 66.46166992 Z " fill="hsl(var(--foreground))" transform="translate(89.5703125,85.038330078125)"/>
<path d="M0 0 C3.76571892 3.45484181 5.94249953 5.47005786 7.0078125 10.55078125 C6.1953125 13.67578125 6.1953125 13.67578125 4.5703125 15.67578125 C1.16429358 17.10989448 -0.29938916 16.91294537 -3.8046875 15.67578125 C-5.53565477 14.13613141 -7.06882225 12.46046887 -8.65234375 10.76953125 C-26.82267995 -6.9061497 -51.98788167 -12.90001811 -76.53125 -12.6015625 C-101.08275427 -11.85408411 -121.97527071 -0.50224751 -138.96484375 16.88671875 C-141.01362638 18.87895324 -141.96573736 19.50372367 -144.8046875 19.67578125 C-147.4921875 18.86328125 -147.4921875 18.86328125 -149.8046875 17.67578125 C-151.31358219 14.65799188 -151.30495026 13.05255488 -150.8046875 9.67578125 C-140.43897365 -7.61301886 -116.74082663 -18.15184075 -98.2109375 -23.328125 C-63.09852713 -31.81909339 -27.64995033 -22.91325967 0 0 Z " fill="hsl(var(--foreground))" transform="translate(308.8046875,356.32421875)"/>
<path d="M0 0 C1 1 1 1 1.5 4.0625 C0.97561572 8.19202622 0.64623104 8.82026354 -2.00390625 11.71484375 C-2.63893066 12.4102124 -3.27395508 13.10558105 -3.92822266 13.82202148 C-7.37214048 17.44247763 -10.88325295 20.98802671 -14.4375 24.5 C-15.16904297 25.22703125 -15.90058594 25.9540625 -16.65429688 26.703125 C-18.43389824 28.47109499 -20.21580918 30.23666378 -22 32 C-17.437017 37.50895502 -12.56416493 42.31898495 -7.29296875 47.15625 C-4.56048617 50.545087 -4.10173073 52.68661693 -4 57 C-5.5625 59.5 -5.5625 59.5 -8 61 C-12.76530996 60.72279696 -15.02445365 59.58999044 -18.3046875 56.18359375 C-19.05234375 55.41982422 -19.8 54.65605469 -20.5703125 53.86914062 C-21.33085937 53.06669922 -22.09140625 52.26425781 -22.875 51.4375 C-23.65875 50.63119141 -24.4425 49.82488281 -25.25 48.99414062 C-27.17844148 47.0069052 -29.09423865 45.00895569 -31 43 C-34.3292629 44.44560711 -36.47741397 46.25396672 -39.00390625 48.84375 C-39.74447266 49.59527344 -40.48503906 50.34679687 -41.24804688 51.12109375 C-42.01181641 51.90613281 -42.77558594 52.69117188 -43.5625 53.5 C-45.08235816 55.05431338 -46.60440247 56.60649288 -48.12890625 58.15625 C-48.79994385 58.84525391 -49.47098145 59.53425781 -50.16235352 60.24414062 C-52 62 -52 62 -55 64 C-58.5625 63.8125 -58.5625 63.8125 -62 63 C-64 60 -64 60 -63.90454102 56.62866211 C-62.86134869 52.44378557 -61.60703384 50.90488162 -58.52734375 47.94140625 C-57.62822266 47.06162109 -56.72910156 46.18183594 -55.80273438 45.27539062 C-54.85720703 44.38013672 -53.91167969 43.48488281 -52.9375 42.5625 C-51.9771449 41.63227241 -51.01814507 40.70064349 -50.06054688 39.76757812 C-47.71998627 37.49758719 -45.36659221 35.24278658 -43 33 C-44.49968154 29.43838208 -46.54727014 27.29463255 -49.3515625 24.6640625 C-50.62773438 23.43816406 -50.62773438 23.43816406 -51.9296875 22.1875 C-53.72678253 20.47895748 -55.53150783 18.77840504 -57.34375 17.0859375 C-58.19195312 16.26609375 -59.04015625 15.44625 -59.9140625 14.6015625 C-60.6973291 13.86244629 -61.4805957 13.12333008 -62.28759766 12.36181641 C-64.45783794 9.36853091 -64.41170976 7.62042195 -64 4 C-62.9375 2.125 -62.9375 2.125 -61 1 C-56.83882478 0.54810767 -54.74413538 0.47307928 -51.27758789 2.92773438 C-50.43446045 3.80751953 -49.59133301 4.68730469 -48.72265625 5.59375 C-48.26644394 6.05986694 -47.81023163 6.52598389 -47.3401947 7.00622559 C-45.89693291 8.48845339 -44.48000493 9.9931636 -43.0625 11.5 C-42.08432757 12.51330956 -41.10452435 13.52504758 -40.12304688 14.53515625 C-37.73220022 17.0084459 -35.35918637 19.49655482 -33 22 C-26.56989234 16.66709325 -20.78493516 10.82213846 -14.96484375 4.83789062 C-14.23910156 4.10119141 -13.51335937 3.36449219 -12.765625 2.60546875 C-12.11368164 1.93668701 -11.46173828 1.26790527 -10.79003906 0.57885742 C-6.94047639 -2.81654926 -4.43004107 -1.73349433 0 0 Z " fill="hsl(var(--foreground))" transform="translate(168,232)"/>
<path d="M0 0 C3.02550722 1.94648017 5.45768484 4.46960194 8 7 C8.56976563 7.56283691 9.13953125 8.12567383 9.7265625 8.70556641 C13.84534234 12.77667518 17.93080322 16.87936674 22 21 C27.21692614 16.65319002 31.92795651 12.03545862 36.5703125 7.07421875 C39.18878726 4.83883274 40.59558473 4.19662464 44 4 C47.2275467 5.32036001 48.63406062 6.13089396 50 9.375 C50 14.24230189 46.89733504 17.22455274 43.64453125 20.55078125 C42.37227717 21.80985135 41.09478872 23.0636511 39.8125 24.3125 C38.83120117 25.28026367 38.83120117 25.28026367 37.83007812 26.26757812 C36.22451217 27.84970516 34.6144531 29.4269513 33 31 C37.21044335 36.03830318 41.62243483 40.72106922 46.3125 45.3125 C47.56088106 46.53542986 48.80708812 47.76058417 50.05078125 48.98828125 C50.59387939 49.51977783 51.13697754 50.05127441 51.6965332 50.59887695 C53.70685529 52.75981317 53.99584629 53.95119386 54.25 56.9375 C54 60 54 60 52.875 61.875 C49.90079585 63.65952249 48.43683798 63.64846 45 63 C41.97449278 61.05351983 39.54231516 58.53039806 37 56 C36.43023437 55.43716309 35.86046875 54.87432617 35.2734375 54.29443359 C31.15465766 50.22332482 27.06919678 46.12063326 23 42 C17.52155939 46.5275943 12.56932414 51.39592926 7.71875 56.58398438 C2.55558937 61.9138978 2.55558937 61.9138978 -2 62 C-5.2275467 60.67963999 -6.63406062 59.86910604 -8 56.625 C-8 52.47204841 -5.80430096 49.90035848 -3.09887695 46.87182617 C-2.40238037 46.18580322 -1.70588379 45.49978027 -0.98828125 44.79296875 C-0.23095703 44.04208984 0.52636719 43.29121094 1.30664062 42.51757812 C2.09232422 41.74865234 2.87800781 40.97972656 3.6875 40.1875 C4.48478516 39.39923828 5.28207031 38.61097656 6.10351562 37.79882812 C8.0645551 35.86127415 10.03011881 33.92855724 12 32 C7.78955665 26.96169682 3.37756517 22.27893078 -1.3125 17.6875 C-2.56088106 16.46457014 -3.80708812 15.23941583 -5.05078125 14.01171875 C-5.59387939 13.48022217 -6.13697754 12.94872559 -6.6965332 12.40112305 C-8.70685529 10.24018683 -8.99584629 9.04880614 -9.25 6.0625 C-9 3 -9 3 -7.875 1.125 C-4.90079585 -0.65952249 -3.43683798 -0.64846 0 0 Z " fill="hsl(var(--foreground))" transform="translate(302,223)"/>
<path d="M0 0 C3.0625 1.0625 3.0625 1.0625 5.0625 4.0625 C4.9162308 7.35785905 4.76017312 9.33112286 2.4453125 11.7578125 C1.70023437 12.22960937 0.95515625 12.70140625 0.1875 13.1875 C-0.70582031 13.76628906 -1.59914063 14.34507813 -2.51953125 14.94140625 C-3.65864807 15.6487695 -4.79799735 16.35575845 -5.9375 17.0625 C-7.46308038 18.02862151 -8.98775097 18.99618051 -10.51171875 19.96484375 C-14.52631359 22.51255221 -18.55504952 25.03687028 -22.58813477 27.55517578 C-25.77586925 29.60038753 -28.87481198 31.76914989 -31.96484375 33.95874023 C-33.9375 35.0625 -33.9375 35.0625 -37.375 35.0625 C-39.9375 34.0625 -39.9375 34.0625 -41.9375 32.0625 C-42.6875 28.875 -42.6875 28.875 -41.9375 25.0625 C-39.53523787 22.61830312 -36.70539028 20.93968715 -33.77929688 19.17871094 C-31.619929 17.87003783 -29.48999062 16.51903632 -27.359375 15.1640625 C-23.34660544 12.61299449 -19.31897485 10.08681162 -15.28491211 7.56958008 C-12.11036832 5.53146684 -9.02984248 3.36312413 -5.95898438 1.17236328 C-3.9375 0.0625 -3.9375 0.0625 0 0 Z " fill="hsl(var(--foreground))" transform="translate(479.9375,75.9375)"/>
<path d="M0 0 C1.625 1.9375 1.625 1.9375 2.1875 5.4375 C1.625 8.9375 1.625 8.9375 -0.54785156 10.6105957 C-3.59822083 12.04226729 -5.82184986 12.43916409 -9.171875 12.66796875 C-10.28820312 12.74893799 -11.40453125 12.82990723 -12.5546875 12.91333008 C-14.32199219 13.01810669 -14.32199219 13.01810669 -16.125 13.125 C-17.93097656 13.24234497 -17.93097656 13.24234497 -19.7734375 13.36206055 C-45.87619669 14.96378901 -45.87619669 14.96378901 -49.3203125 12.60546875 C-50.375 10.9375 -50.375 10.9375 -50.25 7.9375 C-49.04160835 3.79444291 -49.04160835 3.79444291 -46.375 1.9375 C-43.52517693 1.46734348 -40.85007215 1.1688248 -37.98046875 0.98828125 C-37.15549393 0.92593796 -36.3305191 0.86359467 -35.48054504 0.79936218 C-32.84195199 0.60337129 -30.20244545 0.42673376 -27.5625 0.25 C-25.7961347 0.12035109 -24.02985681 -0.01049479 -22.26367188 -0.14257812 C-3.39812882 -1.52021553 -3.39812882 -1.52021553 0 0 Z " fill="hsl(var(--foreground))" transform="translate(498.375,120.0625)"/>
<path d="M0 0 C0.7807355 3.74753042 0.76807095 5.77806894 -1.2890625 9.05078125 C-2.49615489 10.64645818 -3.70605837 12.24001048 -4.91796875 13.83203125 C-8.03828864 18.57983506 -10.13818617 23.7053913 -12.33398438 28.9309082 C-12.65302734 29.685896 -12.97207031 30.44088379 -13.30078125 31.21875 C-13.58091064 31.89873047 -13.86104004 32.57871094 -14.1496582 33.27929688 C-15 35 -15 35 -17 37 C-20.5 37.25 -20.5 37.25 -24 37 C-26 35 -26 35 -26.33984375 31.88671875 C-25.93406154 27.24587629 -24.59886009 23.95148946 -22.5625 19.8125 C-22.20559082 19.07580078 -21.84868164 18.33910156 -21.48095703 17.58007812 C-18.16141779 10.94964052 -14.45626416 4.10001324 -9 -1 C-4.79639434 -2.27704476 -3.7251406 -2.48342706 0 0 Z " fill="hsl(var(--foreground))" transform="translate(445,56)"/>
</svg>
